<!DOCTYPE svg PUBLIC "-//W3C//DTD SVG 20010904//EN" "http://www.w3.org/TR/2001/REC-SVG-20010904/DTD/svg10.dtd">
<svg version="1.0" xmlns="http://www.w3.org/2000/svg" width="438px" height="634px" viewBox="0 0 4380 6340" preserveAspectRatio="xMidYMid meet">
<g id="layer101" fill="#670e7a" stroke="none">
 <path d="M3180 6203 c-23 -5 -711 -685 -2552 -2522 -448 -448 -437 -434 -423 -545 l7 -51 1441 -1444 c1002 -1002 1454 -1449 1482 -1462 49 -23 103 -24 153 -4 51 22 807 774 833 830 21 46 23 83 8 140 -9 35 -145 175 -1007 1038 l-997 997 1012 1013 c961 962 1012 1014 1018 1055 4 23 4 60 0 82 -9 51 -49 95 -491 533 -245 242 -340 330 -365 337 -34 10 -74 11 -119 3z m310 -668 l245 -245 -1008 -1008 c-1039 -1039 -1027 -1026 -1027 -1102 0 -86 -34 -49 1018 -1103 l997 -997 -250 -250 -250 -250 -1295 1295 -1295 1295 1305 1305 c718 718 1307 1305 1310 1305 3 0 115 -110 250 -245z"/>
 </g>
<g id="layer102" fill="#0d6cec" stroke="none">
 <path d="M3180 6203 c-23 -5 -711 -685 -2552 -2522 -448 -448 -437 -434 -423 -545 l7 -51 1441 -1444 c1002 -1002 1454 -1449 1482 -1462 49 -23 103 -24 153 -4 51 22 807 774 833 830 21 46 23 83 8 140 -9 35 -145 175 -1007 1038 l-997 997 1012 1013 c961 962 1012 1014 1018 1055 4 23 4 60 0 82 -9 51 -49 95 -491 533 -245 242 -340 330 -365 337 -34 10 -74 11 -119 3z m99 -23 c25 -7 120 -95 365 -337 421 -418 482 -482 490 -525 14 -77 44 -45 -1031 -1120 l-1018 -1018 1007 -1007 c917 -918 1008 -1012 1018 -1052 22 -84 18 -89 -417 -523 -442 -440 -439 -438 -525 -405 -35 14 -304 278 -1489 1464 -1309 1310 -1447 1452 -1452 1485 -13 86 -14 85 421 519 1815 1811 2529 2517 2552 2522 42 7 44 7 79 -3z"/>
 <path d="M1910 4495 l-1325 -1325 1310 -1310 c720 -720 1315 -1310 1320 -1310 6 0 129 119 275 265 l265 265 -1007 1007 c-904 905 -1008 1012 -1018 1051 -23 89 -78 29 1027 1134 l1018 1018 -265 265 c-146 146 -267 265 -270 265 -3 0 -601 -596 -1330 -1325z m1580 1040 l245 -245 -1008 -1008 c-1039 -1039 -1027 -1026 -1027 -1102 0 -86 -34 -49 1018 -1103 l997 -997 -250 -250 -250 -250 -1295 1295 -1295 1295 1305 1305 c718 718 1307 1305 1310 1305 3 0 115 -110 250 -245z"/>
 </g>

</svg>