<!DOCTYPE svg PUBLIC "-//W3C//DTD SVG 20010904//EN" "http://www.w3.org/TR/2001/REC-SVG-20010904/DTD/svg10.dtd">
<svg version="1.0" xmlns="http://www.w3.org/2000/svg" width="438px" height="634px" viewBox="0 0 4380 6340" preserveAspectRatio="xMidYMid meet">
<g id="layer101" fill="#670e7a" stroke="none">
 <path d="M1076 6200 c-27 -8 -588 -554 -767 -747 -84 -90 -97 -122 -84 -205 6 -41 57 -93 1018 -1055 l1012 -1013 -997 -997 c-862 -863 -998 -1003 -1007 -1038 -15 -57 -13 -94 8 -140 26 -56 782 -808 833 -830 50 -20 104 -19 153 4 28 13 480 460 1482 1462 l1441 1444 7 51 c4 30 2 70 -5 95 -10 40 -135 167 -1467 1494 -801 798 -1464 1456 -1475 1463 -24 17 -114 24 -152 12z m1374 -1725 l1305 -1305 -1295 -1295 -1295 -1295 -250 250 -250 250 997 997 c1052 1054 1018 1017 1018 1103 0 76 12 63 -1027 1102 l-1008 1008 245 245 c135 135 247 245 250 245 3 0 592 -587 1310 -1305z"/>
 </g>
<g id="layer102" fill="#0d6cec" stroke="none">
 <path d="M1076 6200 c-27 -8 -588 -554 -767 -747 -84 -90 -97 -122 -84 -205 6 -41 57 -93 1018 -1055 l1012 -1013 -997 -997 c-862 -863 -998 -1003 -1007 -1038 -15 -57 -13 -94 8 -140 26 -56 782 -808 833 -830 50 -20 104 -19 153 4 28 13 480 460 1482 1462 l1441 1444 7 51 c4 30 2 70 -5 95 -10 40 -135 167 -1467 1494 -801 798 -1464 1456 -1475 1463 -24 17 -114 24 -152 12z m134 -33 c10 -7 672 -664 1473 -1462 1566 -1560 1484 -1472 1470 -1563 -5 -33 -143 -175 -1452 -1485 -1185 -1186 -1454 -1450 -1489 -1464 -86 -33 -83 -35 -525 405 -435 434 -439 439 -417 523 10 40 101 134 1018 1052 l1007 1007 -1018 1018 c-799 800 -1019 1024 -1027 1052 -18 62 -3 95 79 183 182 195 740 739 767 747 33 10 91 4 114 -13z"/>
 <path d="M870 5555 l-265 -265 1018 -1018 c1105 -1105 1050 -1045 1027 -1134 -10 -39 -114 -146 -1018 -1051 l-1007 -1007 265 -265 c146 -146 269 -265 275 -265 5 0 600 590 1320 1310 l1310 1310 -1325 1325 c-729 729 -1327 1325 -1330 1325 -3 0 -124 -119 -270 -265z m1580 -1080 l1305 -1305 -1295 -1295 -1295 -1295 -250 250 -250 250 997 997 c1052 1054 1018 1017 1018 1103 0 76 12 63 -1027 1102 l-1008 1008 245 245 c135 135 247 245 250 245 3 0 592 -587 1310 -1305z"/>
 </g>

</svg>